Terry Hoitz's past mistakes in the line of duty and Allen Gamble's reluctance to take risks have landed them the roles of the "Other Guys", disgraced New York City police detectives relegated to filling out paperwork for cocky hero cops Danson and Highsmith. The mismatched duo must look past their differences when they take on a high-profile investigation of shady capitalist David Ershon and attempt to fill the shoes of the notoriously reckless officers they idolize.


Will Ferrell como Detetive Allen Gamble
Mark Wahlberg como Detetive Terry Hoitz
Michael Keaton como Capitão Gene Mauch
Eva Mendes como Dra. Sheila Gamble
Steve Coogan como David Ershon
Ray Stevenson como Roger Wesley
Samuel L. Jackson como Detetive P.K. Highsmith
Dwayne Johnson como Detetive Christopher Danson
Rob Riggle como Detetive Evan Martin
Damon Wayans, Jr. como Detetive Fosse
Zach Woods como Douglas
Lindsay Sloane como Francine
Rob Huebel como Oficial Watts
Bobby Cannavale como Jimmy
Anne Heche como Pamela Boardman
Andrew Buckley como Don Beaman
Oliver Wood como Capitão Salty



Format : Matroska
Format version : Version 2
File size : 8.90 GiB
Duration : 1h 56mn
Overall bit rate : 10.9 Mbps
Encoded date : UTC 2013-02-27 21:50:52

Vídeo
Format : x264
Format profile : High@L4.1
Codec ID : V_MPEG4/ISO/AVC
Duration : 1h 56mn
Bit rate : 9 022 Kbps
Width : 1 920 pixels
Height : 800 pixels
Display aspect ratio : 2.40:1
Frame rate mode : Variable
Frame rate : 23.976 fps
Language : Inglês

Áudio #1
ID : 2
Format : DTS
Format/Info : Digital Theater Systems
Muxing mode : Header stripping
Codec ID : A_DTS
Duration : 1h 56mn
Bit rate mode : Constante
Bit rate : 1 510 Kbps
Channel(s) : 6 canais
Channel positions : Front: L C R, Side: L R, LFE
Sampling rate : 48.0 KHz
Bit depth : 16 bits
Stream size : 1.23 GiB (14%)
Title : DTS
Language : Inglês

Áudio #2
ID : 6
Format : AC-3
Format/Info : Audio Coding 3
Mode extension : CM (complete main)
Format settings, Endianness : Big
Muxing mode : Header stripping
Codec ID : A_AC3
Duration : 1h 56mn
Bit rate mode : Constante
Bit rate : 192 Kbps
Channel(s) : 2 canais
Channel positions : Front: L R
Sampling rate : 48.0 KHz
Bit depth : 16 bits
Stream size : 160 MiB (2%)
Title : Português
Language : Português

Text #1
ID : 3
Format : UTF-8
Title : Dutch
Default : Não
Forced : Não

Text #2
ID : 4
Format : UTF-8
Title : English
Language : Inglês

Text #3
ID : 5
Format : UTF-8
Title : Português
Language : Português